Music_Lavender_Ch1::
	tempo 152
	volume 7, 7
	duty_cycle 1
	toggle_perfect_pitch
	vibrato 0, 8, 8
	note_type 12, 8, 7
	rest 16
	rest 16
	rest 16
	rest 16
	note_type 12, 10, 7

Music_Lavender_branch_bb6b::
	octave 3
	note G_, 8
	note G_, 8
	note E_, 8
	note E_, 8
	note G_, 4
	note F#, 4
	note E_, 4
	note B_, 4
	note C#, 8
	note C#, 8
	note G_, 8
	note G_, 8
	note F#, 8
	note F#, 8
	note B_, 4
	note G_, 4
	note F#, 4
	note B_, 4
	octave 4
	note C_, 8
	note C_, 8
	octave 3
	note G_, 8
	note G_, 8
	note E_, 8
	note E_, 8
	note G_, 4
	note F#, 4
	note E_, 4
	note B_, 4
	note C#, 8
	note C#, 8
	note G_, 8
	note G_, 8
	note F#, 8
	note F#, 8
	note B_, 4
	note G_, 4
	note F#, 4
	note B_, 4
	note C_, 8
	note C_, 8
	rest 16
	rest 16
	rest 16
	rest 16
	sound_loop 0, Music_Lavender_branch_bb6b


Music_Lavender_Ch2::
	vibrato 10, 2, 3
	duty_cycle 3
	
Music_Lavender_branch_bba5::
	note_type 12, 12, 7
	octave 3
	note G_, 6
	note A_, 1
	note B_, 1
	octave 4
	note C_, 6
	note D_, 1
	note E_, 1
	note_type 12, 12, 1
	note D_, 4
	note_type 12, 12, 7
	note G_, 4
	note A_, 6
	note G_, 1
	note F#, 1
	note E_, 4
	note D_, 4
	note C_, 3
	octave 3
	note B_, 1
	octave 4
	note C_, 2
	note D_, 1
	note E_, 1
	note_type 12, 12, 1
	note D_, 4
	note_type 12, 12, 7
	octave 3
	note B_, 8
	note A_, 4
	note G_, 6
	note A_, 1
	note B_, 1
	octave 4
	note C_, 6
	note D_, 1
	note E_, 1
	note_type 12, 12, 1
	note D_, 4
	note_type 12, 12, 7
	note G_, 4
	note A_, 6
	note G_, 1
	note F#, 1
	note E_, 4
	note D_, 4
	note C_, 3
	octave 3
	note B_, 1
	octave 4
	note C_, 2
	note D_, 1
	note E_, 1
	note_type 12, 12, 1
	note D_, 4
	note_type 12, 12, 7
	octave 3
	note A_, 4
	note G_, 4
	note F#, 4
	note_type 12, 11, 0
	octave 4
	note D_, 6
	octave 3
	note B_, 2
	note G_, 8
	octave 4
	note E_, 6
	note C_, 2
	octave 3
	note A_, 8
	octave 4
	note A_, 6
	note F#, 2
	note D_, 2
	note C_, 2
	octave 3
	note B_, 2
	note A_, 2
	note B_, 4
	octave 4
	note D_, 4
	octave 3
	note B_, 2
	note A_, 6
	sound_loop 0, Music_Lavender_branch_bba5


Music_Lavender_Ch3::
	vibrato 4, 1, 1
	note_type 12, 3, 5
	rest 16
	rest 16
	rest 16
	rest 16
	note_type 12, 2, 5

Music_Lavender_branch_bbb9::
	octave 4
	note E_, 16
	note D_, 16
	note C_, 16
	note E_, 4
	note C_, 4
	octave 3
	note B_, 4
	octave 4
	note E_, 4
	note E_, 16
	note D_, 16
	note C_, 16
	note E_, 4
	note C_, 4
	octave 3
	note B_, 4
	octave 4
	note E_, 4
	note E_, 16
	note D_, 16
	note C_, 16
	note E_, 4
	note C_, 4
	octave 3
	note B_, 4
	octave 4
	note E_, 4
	note_type 12, 3, 5
	octave 6
	note B_, 4
	note G_, 4
	note F#, 4
	note B_, 4
	note_type 12, 2, 5
	note B_, 4
	note G_, 4
	note F#, 4
	note B_, 4
	octave 7
	note B_, 4
	note G_, 4
	note F#, 4
	note B_, 4
	octave 4
	note E_, 4
	note G_, 4
	note F#, 4
	note B_, 4
	note E_, 16
	note D_, 16
	note C_, 16
	note E_, 4
	note C_, 4
	octave 3
	note B_, 4
	octave 4
	note E_, 4
	note E_, 16
	note D_, 16
	note C_, 16
	note E_, 4
	note C_, 4
	octave 3
	note B_, 4
	octave 4
	note E_, 4
	note E_, 16
	note D_, 16
	note C_, 16
	note E_, 4
	note C_, 4
	octave 3
	note B_, 4
	octave 4
	note E_, 4
	note_type 12, 2, 5
	octave 6
	note B_, 4
	note G_, 4
	note F#, 4
	note B_, 4
	octave 7
	note B_, 4
	note G_, 4
	note F#, 4
	note B_, 4
	octave 8
	note B_, 4
	note G_, 4
	note F#, 4
	note B_, 4
	octave 4
	note E_, 4
	note G_, 4
	note F#, 4
	note B_, 4
	sound_loop 0, Music_Lavender_branch_bbb9


Music_Lavender_Ch4::
	drum_speed 12
	rest 16
	rest 16
	rest 16
	rest 16

Music_Lavender_branch_bc26::
	drum_note 7, 8
	drum_note 7, 8
	sound_loop 0, Music_Lavender_branch_bc26
